<?xml version="1.0" encoding="utf-8"?>
<!-- Generator: Adobe Illustrator 19.0.0, SVG Export Plug-In . SVG Version: 6.00 Build 0)  -->
<svg version="1.1" id="Capa_1" xmlns="http://www.w3.org/2000/svg" xmlns:xlink="http://www.w3.org/1999/xlink" x="0px" y="0px"
	 viewBox="0 0 243 239.9" style="enable-background:new 0 0 243 239.9;" xml:space="preserve">
<style type="text/css">
	.st0{fill-rule:evenodd;clip-rule:evenodd;fill:#aaa;}
</style>
<g>
	<g>
		<path class="st0" d="M122.3,0c14.5,0,26.3,11.8,26.3,26.3c0,14.5-11.8,26.3-26.3,26.3C107.7,52.5,96,40.8,96,26.3
			C96,11.8,107.7,0,122.3,0L122.3,0z M121.7,127.5l62,104.5l-16,7.4L132,177.1l-1.6-2.8c-4.8-7.8-9.7-10.2-15.4-1.5l-40,67L60,231.1
			l61.3-104.4L121.7,127.5L121.7,127.5L121.7,127.5z M133.2,106.8L133.2,106.8l-0.9,0l65,114.5l13.8-11l-41.8-75.7
			c-1.1-3.8,0-9.7,9.1-10.1h2.3c0.2,0,0.4,0,0.4,0H243v-17.7H133.2L133.2,106.8z M109.9,106.8H0v17.7h61.9c0.1,0,0.2,0,0.4,0h2.3
			c9.1,0.4,10.2,6.3,9.1,10.1l-41.8,75.7l13.8,11l65-114.5L109.9,106.8L109.9,106.8z"/>
		<path class="st0" d="M11.7,86.1c-0.5,11.4,16.5,12,22.8,12c12.6,0,26.1-2.8,26.1-11.5c0-6.1-7.9-8.2-15.9-9.6
			c-7.9-1.2-16.2-1.9-16.4-4.2c0-0.7,0.4-1.6,1.2-2.3c1.3-1.1,3.5-1.7,5-1.7c1.9,0,9.9-0.1,8.7,3.6l14.5,0c-0.4-8.1-10.7-9.9-23-9.9
			C27,62.6,19,63.3,15,66.6c-2,1.6-2.7,4.4-2.5,7.1c0.5,6.7,8.2,8.5,17.2,10c2.8,0.5,6.8,0.4,8.6,0.7c4.5,0.9,5.7,2.3,5.7,3.5
			c-0.1,3.5-5.7,3.5-8.6,3.5c-3.2,0-8.5-1-9.7-3c-0.4-0.6-0.6-1.4-0.6-2.2H11.7L11.7,86.1z M66.9,98.7h43.2v-7.4H81.9v-6.7h24.4
			v-8.9H81.9v-5.4h26.7v-7.6H66.9v35.7V98.7L66.9,98.7z M117.2,98.7h14.1V74.8h0.2l20.8,23.8h18.9l0.3-36.1l-13.4,0.1l-0.2,22.1
			h-0.2l-21.4-22.3h-19.1V98.7L117.2,98.7z M175.9,98.7h13.3l3.8-7.5h23.9l4.6,7.5h13.9l-18.9-35.6h-19.7L175.9,98.7L175.9,98.7z
			 M198,83.6l7.6-13.1h0.2l7.4,13.1H198z"/>
	</g>
</g>
</svg>
